<?xml version="1.0" standalone="no"?><!DOCTYPE svg PUBLIC "-//W3C//DTD SVG 1.1//EN" "http://www.w3.org/Graphics/SVG/1.1/DTD/svg11.dtd"><svg class="icon" width="200px" height="200.00px" viewBox="0 0 1024 1024" version="1.1" xmlns="http://www.w3.org/2000/svg"><path d="M285.952 128.554667A85.333333 85.333333 0 0 0 170.666667 208.469333V247.466667l-8.490667 0.853333A85.333333 85.333333 0 0 0 85.333333 333.226667v485.546666a85.333333 85.333333 0 0 0 76.842667 84.906667l341.333333 34.133333c5.632 0.554667 11.349333 0.554667 16.981334 0l341.333333-34.133333A85.333333 85.333333 0 0 0 938.666667 818.773333V333.226667a85.333333 85.333333 0 0 0-76.842667-84.906667L853.333333 247.466667v-38.997334a85.333333 85.333333 0 0 0-115.285333-79.914666l-196.096 73.557333a85.333333 85.333333 0 0 1-59.904 0L285.952 128.554667z" fill="#FFCC00" /><path d="M755.029333 329.429333a32 32 0 0 0-41.6-17.792l-106.666666 42.666667a32 32 0 0 0 23.808 59.392l106.666666-42.666667a32 32 0 0 0 17.792-41.6zM755.029333 470.229333a32 32 0 0 0-41.6-17.792l-106.666666 42.666667a32 32 0 0 0 23.808 59.392l106.666666-42.666667a32 32 0 0 0 17.792-41.6zM755.029333 611.029333a32 32 0 0 0-41.6-17.834666l-106.666666 42.666666a32 32 0 0 0 23.808 59.434667l106.666666-42.666667a32 32 0 0 0 17.792-41.6zM310.570667 311.637333a32 32 0 0 0-23.808 59.392l106.666666 42.666667a32 32 0 1 0 23.765334-59.392l-106.666667-42.666667zM310.570667 452.437333a32 32 0 0 0-23.808 59.392l106.666666 42.666667a32 32 0 1 0 23.765334-59.392l-106.666667-42.666667zM310.570667 593.194667a32 32 0 0 0-23.808 59.434666l106.666666 42.666667a32 32 0 0 0 23.765334-59.434667l-106.666667-42.666666z" fill="#000000" /><path d="M285.952 128.554667A85.333333 85.333333 0 0 0 170.666667 208.469333V247.466667l-8.490667 0.853333A85.333333 85.333333 0 0 0 85.333333 333.226667v485.546666a85.333333 85.333333 0 0 0 76.842667 84.906667l341.333333 34.133333c5.632 0.554667 11.349333 0.554667 16.981334 0l341.333333-34.133333A85.333333 85.333333 0 0 0 938.666667 818.773333V333.226667a85.333333 85.333333 0 0 0-76.842667-84.906667L853.333333 247.466667v-38.997334a85.333333 85.333333 0 0 0-115.285333-79.914666l-196.096 73.557333a85.333333 85.333333 0 0 1-59.904 0L285.952 128.554667zM810.666667 715.264a42.666667 42.666667 0 0 1-23.594667 38.144L533.333333 880.298667V248.405333c8.021333-1.365333 15.914667-3.456 23.594667-6.357333L753.066667 168.533333A42.666667 42.666667 0 0 1 810.666667 208.469333v506.794667z m-320 165.034667l-253.738667-126.890667A42.666667 42.666667 0 0 1 213.333333 715.264V208.469333a42.666667 42.666667 0 0 1 57.642667-39.936l196.096 73.514667c7.68 2.901333 15.573333 4.992 23.594667 6.4v631.850667zM170.666667 715.264a85.333333 85.333333 0 0 0 47.189333 76.330667l133.333333 66.688-182.613333-18.261334a21.333333 21.333333 0 0 1-19.242667-21.248V333.226667a21.333333 21.333333 0 0 1 19.2-21.248L170.666667 311.808v403.456z m684.8 124.757333l-182.656 18.261334 133.333333-66.688A85.333333 85.333333 0 0 0 853.333333 715.264V311.808l2.133334 0.170667a21.333333 21.333333 0 0 1 19.2 21.248v485.546666a21.333333 21.333333 0 0 1-19.2 21.248z" fill="#000000" /></svg>